<svg width="282" height="282" viewBox="0 0 282 282" fill="none" xmlns="http://www.w3.org/2000/svg">
<path d="M140.651 272.631L140.651 272.131L140.651 272.131L140.651 272.631ZM261.734 211.557L262.164 211.811L262.164 211.811L261.734 211.557ZM222.207 61.9751L222.559 61.6201L222.207 61.9751ZM222.207 223.486L222.559 223.841L222.207 223.486ZM59.2988 223.486L59.6509 223.131L59.2988 223.486ZM59.2988 61.9751L59.6509 62.3302L59.2988 61.9751ZM242.435 140.999C242.435 196.53 197.027 241.554 141.004 241.554V242.554C197.571 242.554 243.435 197.09 243.435 140.999H242.435ZM141.004 241.554C84.9819 241.554 39.5741 196.53 39.5741 140.999H38.5741C38.5741 197.09 84.4378 242.554 141.004 242.554V241.554ZM39.5741 140.999C39.5741 85.4671 84.9819 40.4427 141.004 40.4427V39.4427C84.4378 39.4427 38.5741 84.9067 38.5741 140.999H39.5741ZM141.004 40.4427C197.027 40.4427 242.435 85.4671 242.435 140.999H243.435C243.435 84.9067 197.571 39.4427 141.004 39.4427V40.4427ZM10.1238 142.728C10.1038 124.149 14.1284 105.785 21.9229 88.8894L21.0149 88.4705C13.1597 105.497 9.1036 124.005 9.12385 142.729L10.1238 142.728ZM21.9229 88.8894C29.7175 71.9938 41.0985 56.9648 55.2889 44.829L54.6389 44.069C40.3393 56.2983 28.8701 71.4435 21.0149 88.4705L21.9229 88.8894ZM148.039 271.926C145.597 272.066 143.134 272.134 140.651 272.131L140.65 273.131C143.152 273.134 145.634 273.065 148.096 272.925L148.039 271.926ZM140.651 272.131C117.736 272.138 95.2236 266.161 75.379 254.803L74.8822 255.671C94.8785 267.116 117.562 273.138 140.651 273.131L140.651 272.131ZM75.379 254.803C55.5343 243.445 39.0574 227.106 27.6054 207.43L26.7412 207.933C38.2819 227.762 54.8859 244.226 74.8822 255.671L75.379 254.803ZM260.925 193.097C254.116 209.017 244.169 223.428 231.667 235.486L232.361 236.206C244.959 224.056 254.983 209.533 261.844 193.49L260.925 193.097ZM231.667 235.486C219.165 247.544 204.36 257.006 188.12 263.316L188.482 264.248C204.846 257.89 219.764 248.357 232.361 236.206L231.667 235.486ZM140.651 13.3205C202.02 13.3205 253.494 55.3074 267.472 111.879L268.443 111.639C254.356 54.6264 202.486 12.3205 140.651 12.3205V13.3205ZM68.8781 261.46C51.421 251.385 36.3635 237.693 24.7338 221.32L23.9185 221.899C35.6318 238.39 50.7971 252.18 68.3782 262.327L68.8781 261.46ZM24.7338 221.32C13.1041 204.947 5.17623 186.278 1.49147 166.589L0.508533 166.773C4.21999 186.604 12.2052 205.408 23.9185 221.899L24.7338 221.32ZM265.127 204.372C263.924 206.704 262.65 209.015 261.303 211.304L262.164 211.811C263.521 209.506 264.805 207.179 266.016 204.831L265.127 204.372ZM261.303 211.304C235.059 255.889 187.705 280.708 139.144 280.499L139.14 281.499C188.039 281.71 235.732 256.717 262.164 211.811L261.303 211.304ZM252.437 57.3713C263.688 72.3062 271.816 89.3185 276.344 107.41L277.314 107.167C272.753 88.9455 264.567 71.8112 253.236 56.7696L252.437 57.3713ZM276.344 107.41C280.873 125.501 281.71 144.307 278.808 162.723L279.796 162.879C282.719 144.33 281.875 125.388 277.314 107.167L276.344 107.41ZM18.2872 70.6936C51.6442 14.0632 119.015 -10.6366 179.72 7.22321L180.002 6.26387C118.871 -11.7213 51.0224 13.1486 17.4255 70.1861L18.2872 70.6936ZM221.855 62.3302C266.644 106.735 266.644 178.727 221.855 223.131L222.559 223.841C267.743 179.046 267.743 106.416 222.559 61.6201L221.855 62.3302ZM221.855 223.131C177.064 267.538 104.442 267.538 59.6509 223.131L58.9468 223.841C104.128 268.635 177.379 268.635 222.559 223.841L221.855 223.131ZM59.6509 223.131C14.8622 178.727 14.8622 106.735 59.6509 62.3302L58.9468 61.6201C13.7636 106.416 13.7636 179.046 58.9468 223.841L59.6509 223.131ZM59.6509 62.3302C104.442 17.9234 177.064 17.9234 221.855 62.3302L222.559 61.6201C177.379 16.8268 104.128 16.8268 58.9468 61.6201L59.6509 62.3302Z" fill="white"/>
</svg>
